<?xml version="1.0" standalone="no"?>
<!DOCTYPE svg PUBLIC "-//W3C//DTD SVG 20010904//EN"
 "http://www.w3.org/TR/2001/REC-SVG-20010904/DTD/svg10.dtd">
<svg version="1.0" xmlns="http://www.w3.org/2000/svg"
 width="1200.000000pt" height="1200.000000pt" viewBox="0 0 1200.000000 1200.000000"
 preserveAspectRatio="xMidYMid meet">
<metadata>
Created by potrace 1.11, written by Peter Selinger 2001-2013
</metadata>
<g transform="translate(0.000000,1200.000000) scale(0.100000,-0.100000)"
fill="#000000" stroke="none">
<path d="M5940 9120 c0 -3 -11 -7 -26 -8 -14 -1 -34 -7 -45 -12 -11 -6 -25 -8
-31 -4 -7 4 -8 3 -4 -4 4 -7 3 -12 -2 -12 -5 0 -46 -22 -90 -49 -45 -27 -82
-47 -82 -45 0 6 -84 -49 -91 -60 -4 -5 -11 -6 -17 -2 -6 3 -14 0 -19 -7 -13
-20 -83 -58 -95 -51 -6 4 -8 2 -5 -3 8 -13 -20 -26 -35 -16 -7 3 -8 1 -4 -5 6
-11 -31 -38 -46 -34 -5 1 -8 -3 -8 -10 0 -6 -3 -9 -6 -5 -3 3 -15 -3 -27 -13
-11 -11 -24 -17 -29 -14 -4 3 -8 0 -8 -6 0 -7 -7 -9 -16 -6 -8 3 -12 2 -9 -4
3 -5 -14 -19 -37 -31 -24 -12 -55 -30 -70 -41 -16 -11 -32 -16 -38 -13 -5 3
-10 2 -10 -3 0 -10 -115 -82 -130 -82 -5 0 -10 -4 -12 -9 -1 -5 -28 -22 -58
-38 -30 -16 -73 -41 -95 -55 -22 -14 -50 -28 -62 -32 -13 -4 -23 -11 -23 -16
0 -4 -8 -11 -17 -14 -17 -6 -37 -17 -73 -41 -8 -5 -17 -10 -20 -10 -3 0 -17
-9 -32 -19 -15 -10 -33 -14 -39 -10 -7 4 -9 3 -6 -4 4 -6 -18 -24 -50 -42 -32
-18 -67 -40 -77 -49 -18 -15 -19 -15 -13 1 3 10 1 20 -6 24 -7 4 -9 4 -5 -1
14 -15 -13 -45 -57 -66 -25 -12 -45 -25 -45 -31 0 -5 -4 -7 -9 -4 -4 3 -19 -3
-31 -14 -27 -23 -31 -24 -50 -7 -12 10 -12 9 -3 -3 13 -17 14 -17 -70 -64 -27
-14 -54 -23 -60 -19 -18 11 -38 12 -31 2 3 -5 9 -7 14 -4 5 3 11 1 14 -4 3 -5
-6 -16 -20 -26 -20 -13 -28 -14 -40 -4 -12 10 -13 9 -8 -5 4 -10 0 -18 -12
-23 -11 -3 -38 -19 -62 -35 -23 -16 -48 -26 -55 -22 -6 4 -9 3 -4 -1 4 -5 -5
-16 -20 -26 -20 -13 -30 -15 -40 -7 -11 8 -12 7 -6 -7 5 -15 3 -17 -11 -12
-10 4 -15 3 -11 -3 4 -6 -6 -16 -22 -23 -15 -7 -47 -25 -70 -40 -24 -15 -52
-28 -63 -30 -11 -2 -23 -7 -27 -12 -5 -4 -2 -5 5 -1 6 4 12 5 12 2 0 -11 -61
-37 -72 -30 -7 4 -8 3 -4 -5 4 -6 0 -14 -9 -18 -9 -3 -31 -19 -48 -34 -17 -16
-35 -29 -39 -29 -5 0 -8 -7 -8 -15 0 -7 -6 -18 -13 -22 -8 -4 -22 -20 -32 -35
-9 -15 -20 -26 -24 -24 -4 3 -13 0 -21 -6 -12 -8 -12 -9 3 -4 9 3 17 4 17 2 0
-3 -16 -34 -35 -70 -19 -37 -35 -73 -35 -81 0 -8 -5 -15 -11 -15 -5 0 -8 -4
-4 -9 3 -5 0 -31 -6 -58 -13 -58 -14 -2662 0 -2733 13 -72 39 -137 83 -209 44
-73 149 -180 200 -204 19 -9 50 -27 71 -41 21 -14 42 -26 47 -26 6 0 10 -4 10
-10 0 -5 9 -10 20 -10 11 0 20 -4 20 -10 0 -5 4 -10 10 -10 5 0 39 -18 75 -40
36 -22 69 -40 74 -40 5 0 11 -3 13 -7 1 -5 28 -21 58 -37 30 -17 78 -45 107
-63 29 -18 56 -33 62 -33 5 0 11 -4 13 -9 2 -5 21 -17 43 -28 22 -11 39 -24
38 -31 -2 -6 3 -9 11 -6 7 3 21 -2 29 -11 9 -9 18 -15 19 -14 8 3 58 -25 58
-33 0 -5 4 -6 10 -3 6 3 10 1 10 -5 0 -6 5 -8 10 -5 6 3 10 1 10 -4 0 -6 4
-11 10 -11 10 0 101 -60 111 -73 3 -5 9 -8 13 -8 20 3 26 0 20 -11 -4 -6 -3
-8 4 -5 5 4 18 4 27 1 13 -5 14 -9 3 -15 -9 -6 -5 -8 12 -7 18 2 25 -2 25 -14
0 -9 4 -20 9 -25 5 -4 6 -3 2 4 -14 24 12 21 55 -8 24 -16 50 -29 57 -29 6 0
12 -4 12 -8 0 -5 19 -17 43 -28 23 -10 44 -21 47 -24 3 -4 24 -17 48 -30 30
-17 39 -26 30 -33 -9 -6 -7 -7 5 -3 23 7 78 -23 70 -38 -3 -6 -3 -8 2 -4 10 9
130 -54 147 -77 4 -5 8 -6 8 -1 0 5 8 3 18 -5 9 -8 28 -20 41 -27 13 -8 40
-23 60 -34 51 -29 72 -44 66 -49 -2 -3 5 -5 16 -6 10 -1 32 -11 48 -22 16 -12
34 -21 39 -21 6 0 17 -9 25 -20 8 -11 17 -17 21 -12 4 4 14 -2 22 -13 8 -11
18 -20 22 -20 4 0 6 -2 5 -5 -1 -3 10 -6 24 -7 14 0 28 -5 32 -10 3 -4 16 -14
29 -20 12 -7 32 -19 45 -25 12 -7 24 -15 27 -18 3 -3 38 -22 77 -41 40 -20 69
-40 66 -45 -4 -5 -1 -4 6 3 10 9 20 9 33 2 35 -19 218 -31 250 -16 9 4 20 3
23 -3 3 -5 12 -10 18 -10 7 0 6 4 -3 11 -12 9 -11 10 8 6 12 -3 22 -1 22 5 0
6 9 8 20 5 11 -3 20 -1 20 4 0 5 8 9 18 9 10 0 23 5 30 12 7 7 12 8 12 3 0 -5
6 0 14 10 12 17 16 18 32 5 11 -9 15 -10 10 -2 -4 7 0 19 8 28 9 8 16 12 16 8
0 -4 8 0 18 9 10 10 22 14 25 11 4 -4 9 1 13 10 3 9 10 16 16 16 5 0 34 16 65
36 30 19 62 33 70 30 8 -3 12 -2 9 3 -6 8 17 24 117 80 20 11 53 30 73 41 19
11 40 17 46 14 7 -4 8 -2 4 4 -11 19 32 36 52 20 15 -11 16 -11 4 3 -11 14 -8
20 23 38 20 11 42 21 50 21 7 0 16 7 19 16 3 8 10 12 16 9 5 -3 10 -1 10 4 0
6 4 11 10 11 5 0 33 15 62 33 97 62 148 87 165 81 14 -5 15 -4 4 4 -16 12 3
27 21 16 7 -4 8 -3 4 4 -4 8 3 16 20 22 14 6 38 19 51 30 14 11 29 17 34 14 5
-3 9 0 9 5 0 6 7 11 15 11 8 0 15 3 15 8 0 4 21 18 48 31 26 14 60 33 75 44
24 16 30 17 45 5 15 -12 16 -11 3 4 -12 16 -9 22 12 19 4 0 7 4 7 9 0 6 7 10
15 10 8 0 15 5 15 10 0 6 6 10 14 10 7 0 19 7 26 15 7 8 16 12 21 9 5 -3 9 0
9 7 0 7 3 10 6 6 3 -3 11 -2 18 4 32 27 88 59 96 54 4 -3 10 2 14 10 3 8 12
15 21 15 8 0 15 3 15 8 0 4 10 12 23 18 46 22 123 67 140 82 9 8 17 12 17 7 0
-4 15 4 34 19 19 14 37 26 41 26 3 0 42 23 86 50 44 28 84 48 89 45 4 -3 11 2
14 11 4 9 13 14 22 10 8 -3 12 -2 9 4 -3 6 0 10 9 10 8 0 16 4 18 9 2 5 9 11
17 13 8 2 23 11 33 21 21 20 43 23 32 5 -4 -8 -3 -10 2 -5 5 5 9 13 9 18 0 5
4 9 8 9 4 -1 14 5 22 12 7 7 36 28 63 47 26 19 61 52 77 72 15 21 33 35 38 32
6 -3 7 -1 3 5 -3 6 9 36 29 66 19 30 35 58 35 62 0 3 6 20 14 37 13 29 23 64
32 107 2 8 4 48 5 87 1 51 5 71 13 66 6 -3 6 0 -1 8 -7 7 -13 26 -13 42 0 24
3 27 14 18 11 -9 16 -9 22 0 4 7 3 9 -3 6 -15 -10 -29 13 -31 51 -2 20 2 32
10 32 9 0 10 3 2 8 -6 4 -11 30 -11 57 0 28 5 53 11 57 8 6 7 8 -1 8 -7 0 -13
5 -13 11 0 5 6 7 13 3 9 -6 9 -4 -1 8 -16 19 -14 119 2 130 8 5 7 8 -1 8 -7 0
-13 5 -13 11 0 5 6 7 13 3 10 -6 10 -4 0 7 -7 7 -13 30 -13 51 0 24 5 38 13
38 8 0 8 3 2 8 -16 11 -18 72 -3 72 9 0 9 3 2 8 -15 11 -17 225 -1 215 9 -5 9
-4 0 8 -16 20 -16 169 0 169 8 0 8 3 2 8 -16 10 -17 64 -3 74 9 5 9 8 2 8 -8
0 -12 24 -12 70 0 50 3 68 12 63 6 -4 5 0 -2 9 -16 19 -14 119 2 130 8 5 7 8
-1 8 -7 0 -13 5 -13 11 0 5 6 7 13 3 10 -6 10 -4 0 7 -7 7 -13 30 -13 51 0 24
5 38 13 38 8 0 8 3 2 8 -16 11 -18 72 -3 72 9 0 9 3 2 8 -15 11 -17 225 -1
215 9 -5 9 -4 0 8 -16 20 -16 169 0 169 8 0 8 3 2 8 -16 10 -17 64 -3 74 8 4
9 8 2 8 -15 0 -17 70 -1 70 8 0 8 3 2 8 -16 10 -17 64 -3 74 8 4 9 8 2 8 -6 0
-11 18 -12 41 -1 30 1 38 11 33 9 -6 9 -4 -1 8 -16 20 -14 141 2 131 7 -5 7
-2 0 8 -7 8 -14 39 -17 69 -3 30 -10 69 -15 87 -13 39 -64 156 -72 163 -4 3
-21 26 -38 51 -35 52 -111 123 -157 146 -16 9 -32 19 -35 22 -3 3 -18 13 -35
21 -16 8 -65 36 -107 62 -43 27 -81 48 -86 48 -5 0 -19 10 -32 23 -14 12 -27
21 -30 21 -11 -3 -50 20 -50 28 0 5 -4 6 -10 3 -5 -3 -10 -1 -10 5 0 6 -4 8
-10 5 -5 -3 -10 -1 -10 4 0 6 -7 11 -15 11 -7 0 -18 7 -23 16 -5 9 -11 15 -13
14 -2 -1 -17 3 -32 9 -17 7 -25 15 -21 23 4 6 3 8 -4 4 -6 -3 -34 7 -62 24
-28 16 -53 30 -56 30 -2 0 -16 7 -30 16 -20 14 -22 19 -12 33 11 14 11 14 -3
3 -17 -13 -49 -7 -49 9 0 5 -3 8 -7 8 -21 -3 -24 3 -12 19 12 15 12 16 -2 5
-12 -10 -24 -8 -60 12 -24 13 -43 29 -41 35 1 6 -2 9 -8 5 -9 -5 -48 10 -60
24 -3 3 -22 14 -43 24 -21 9 -35 22 -32 27 3 5 0 7 -7 5 -8 -3 -23 2 -34 12
-11 10 -26 19 -34 21 -8 2 -18 8 -21 14 -3 5 -10 10 -15 11 -5 1 -9 7 -9 14 0
6 -4 15 -8 20 -5 4 -7 4 -5 -2 6 -20 -30 -12 -77 17 -11 7 -22 15 -25 18 -7 7
-50 31 -93 52 -21 10 -36 22 -33 26 3 4 -3 8 -13 9 -10 1 -48 20 -85 42 -36
23 -71 41 -76 41 -6 0 -10 4 -10 8 0 4 -12 13 -27 20 -41 17 -97 53 -105 66
-4 6 -8 8 -8 3 0 -4 -18 4 -40 18 -22 14 -45 25 -51 25 -6 0 -8 7 -5 16 4 9 2
13 -5 8 -15 -9 -60 16 -52 29 3 6 1 7 -5 3 -18 -11 -104 44 -97 62 4 11 2 12
-8 4 -17 -14 -82 22 -71 40 4 6 3 8 -4 4 -12 -7 -64 13 -57 23 2 4 -4 7 -14 8
-10 1 -43 17 -72 36 -30 18 -62 37 -72 40 -11 4 -15 12 -11 18 4 7 3 9 -4 6
-15 -10 -43 3 -35 16 3 5 1 7 -4 4 -6 -4 -24 0 -39 8 -16 8 -39 15 -51 15 -12
0 -24 6 -26 13 -3 6 -6 7 -6 1 -1 -6 -21 -8 -56 -4 -30 3 -55 3 -55 0z"/>
<path d="M6465 8960 c-3 -6 1 -7 9 -4 18 7 21 14 7 14 -6 0 -13 -4 -16 -10z"/>
<path d="M6495 8920 c3 -5 8 -10 11 -10 2 0 4 5 4 10 0 6 -5 10 -11 10 -5 0
-7 -4 -4 -10z"/>
<path d="M5475 8910 c-4 -6 -11 -7 -17 -4 -7 4 -8 2 -4 -5 6 -9 11 -9 22 0 14
11 18 19 10 19 -3 0 -8 -5 -11 -10z"/>
<path d="M6675 8820 c3 -5 8 -10 11 -10 2 0 4 5 4 10 0 6 -5 10 -11 10 -5 0
-7 -4 -4 -10z"/>
<path d="M5210 8800 c0 -5 5 -10 11 -10 5 0 7 5 4 10 -3 6 -8 10 -11 10 -2 0
-4 -4 -4 -10z"/>
<path d="M5093 8711 c0 -11 5 -18 9 -15 4 3 5 11 1 19 -7 21 -12 19 -10 -4z"/>
<path d="M6895 8680 c3 -5 8 -10 11 -10 2 0 4 5 4 10 0 6 -5 10 -11 10 -5 0
-7 -4 -4 -10z"/>
<path d="M6935 8659 c-3 -4 2 -6 10 -5 21 3 28 13 10 13 -9 0 -18 -4 -20 -8z"/>
<path d="M4916 8613 c-6 -14 -5 -15 5 -6 7 7 10 15 7 18 -3 3 -9 -2 -12 -12z"/>
<path d="M6995 8619 c-3 -4 2 -6 10 -5 21 3 28 13 10 13 -9 0 -18 -4 -20 -8z"/>
<path d="M4853 8535 c0 -8 4 -12 9 -9 5 3 6 10 3 15 -9 13 -12 11 -12 -6z"/>
<path d="M4696 8478 c3 -5 10 -6 15 -3 13 9 11 12 -6 12 -8 0 -12 -4 -9 -9z"/>
<path d="M7296 8458 c3 -5 10 -6 15 -3 13 9 11 12 -6 12 -8 0 -12 -4 -9 -9z"/>
<path d="M4599 8433 c-13 -16 -12 -17 4 -4 9 7 17 15 17 17 0 8 -8 3 -21 -13z"/>
<path d="M4655 8440 c-3 -5 -1 -10 4 -10 6 0 11 5 11 10 0 6 -2 10 -4 10 -3 0
-8 -4 -11 -10z"/>
<path d="M4590 8401 c0 -6 4 -13 10 -16 6 -3 7 1 4 9 -7 18 -14 21 -14 7z"/>
<path d="M7466 8398 c3 -5 10 -6 15 -3 13 9 11 12 -6 12 -8 0 -12 -4 -9 -9z"/>
<path d="M4497 8355 c-4 -8 -3 -16 1 -19 4 -3 9 4 9 15 2 23 -3 25 -10 4z"/>
<path d="M4286 8218 c3 -5 10 -6 15 -3 13 9 11 12 -6 12 -8 0 -12 -4 -9 -9z"/>
<path d="M4099 8128 c-5 -18 -6 -38 -1 -34 7 8 12 36 6 36 -2 0 -4 -1 -5 -2z"/>
<path d="M7973 8071 c0 -11 5 -18 9 -15 4 3 5 11 1 19 -7 21 -12 19 -10 -4z"/>
<path d="M8115 7980 c-3 -5 -1 -10 4 -10 6 0 11 5 11 10 0 6 -2 10 -4 10 -3 0
-8 -4 -11 -10z"/>
<path d="M8175 7939 c-3 -4 2 -6 10 -5 21 3 28 13 10 13 -9 0 -18 -4 -20 -8z"/>
<path d="M8356 7927 c3 -10 9 -15 12 -12 3 3 0 11 -7 18 -10 9 -11 8 -5 -6z"/>
<path d="M8296 7861 c9 -9 34 -9 34 -1 0 5 -9 8 -20 7 -10 -1 -17 -3 -14 -6z"/>
<path d="M3435 7809 c-4 -6 -5 -12 -2 -15 2 -3 7 2 10 11 7 17 1 20 -8 4z"/>
<path d="M3511 7793 c7 -12 15 -20 18 -17 3 2 -3 12 -13 22 -17 16 -18 16 -5
-5z"/>
<path d="M8633 7795 c0 -8 4 -12 9 -9 5 3 6 10 3 15 -9 13 -12 11 -12 -6z"/>
<path d="M8695 7691 c-3 -5 -2 -12 3 -15 5 -3 9 1 9 9 0 17 -3 19 -12 6z"/>
<path d="M8715 7600 c3 -5 8 -10 11 -10 2 0 4 5 4 10 0 6 -5 10 -11 10 -5 0
-7 -4 -4 -10z"/>
<path d="M3180 7246 c0 -2 8 -10 18 -17 15 -13 16 -12 3 4 -13 16 -21 21 -21
13z"/>
<path d="M8955 7209 c-4 -6 -5 -12 -2 -15 2 -3 7 2 10 11 7 17 1 20 -8 4z"/>
<path d="M3194 7182 c4 -3 14 -7 22 -8 9 -1 13 0 10 4 -4 3 -14 7 -22 8 -9 1
-13 0 -10 -4z"/>
<path d="M8770 7120 c0 -5 5 -10 11 -10 5 0 7 5 4 10 -3 6 -8 10 -11 10 -2 0
-4 -4 -4 -10z"/>
<path d="M3214 7036 c1 -8 5 -18 8 -22 4 -3 5 1 4 10 -1 8 -5 18 -8 22 -4 3
-5 -1 -4 -10z"/>
<path d="M3219 6928 c-5 -18 -6 -38 -1 -34 7 8 12 36 6 36 -2 0 -4 -1 -5 -2z"/>
<path d="M8836 6922 c-3 -5 1 -9 9 -9 8 0 12 4 9 9 -3 4 -7 8 -9 8 -2 0 -6 -4
-9 -8z"/>
<path d="M3219 6808 c-5 -18 -6 -38 -1 -34 7 8 12 36 6 36 -2 0 -4 -1 -5 -2z"/>
<path d="M8836 6758 c3 -5 10 -6 15 -3 13 9 11 12 -6 12 -8 0 -12 -4 -9 -9z"/>
<path d="M8773 6711 c0 -11 5 -18 9 -15 4 3 5 11 1 19 -7 21 -12 19 -10 -4z"/>
<path d="M3219 6688 c-5 -18 -6 -38 -1 -34 7 8 12 36 6 36 -2 0 -4 -1 -5 -2z"/>
<path d="M8774 6656 c1 -8 5 -18 8 -22 4 -3 5 1 4 10 -1 8 -5 18 -8 22 -4 3
-5 -1 -4 -10z"/>
<path d="M3219 6568 c-5 -18 -6 -38 -1 -34 7 8 12 36 6 36 -2 0 -4 -1 -5 -2z"/>
<path d="M3110 6521 c0 -6 4 -13 10 -16 6 -3 7 1 4 9 -7 18 -14 21 -14 7z"/>
<path d="M8779 6488 c-5 -18 -6 -38 -1 -34 7 8 12 36 6 36 -2 0 -4 -1 -5 -2z"/>
<path d="M8836 6478 c3 -5 10 -6 15 -3 13 9 11 12 -6 12 -8 0 -12 -4 -9 -9z"/>
<path d="M3167 6439 c7 -7 15 -10 18 -7 3 3 -2 9 -12 12 -14 6 -15 5 -6 -5z"/>
<path d="M3219 6448 c-5 -18 -6 -38 -1 -34 7 8 12 36 6 36 -2 0 -4 -1 -5 -2z"/>
<path d="M3219 6328 c-5 -18 -6 -38 -1 -34 7 8 12 36 6 36 -2 0 -4 -1 -5 -2z"/>
<path d="M3195 6200 c-3 -5 -1 -10 4 -10 6 0 11 5 11 10 0 6 -2 10 -4 10 -3 0
-8 -4 -11 -10z"/>
<path d="M3036 6158 c3 -5 10 -6 15 -3 13 9 11 12 -6 12 -8 0 -12 -4 -9 -9z"/>
<path d="M8793 6155 c0 -8 4 -12 9 -9 5 3 6 10 3 15 -9 13 -12 11 -12 -6z"/>
<path d="M8866 6158 c3 -5 10 -6 15 -3 13 9 11 12 -6 12 -8 0 -12 -4 -9 -9z"/>
<path d="M3195 6120 c3 -5 8 -10 11 -10 2 0 4 5 4 10 0 6 -5 10 -11 10 -5 0
-7 -4 -4 -10z"/>
<path d="M8776 6098 c3 -5 10 -6 15 -3 13 9 11 12 -6 12 -8 0 -12 -4 -9 -9z"/>
<path d="M3196 5953 c-6 -14 -5 -15 5 -6 7 7 10 15 7 18 -3 3 -9 -2 -12 -12z"/>
<path d="M3036 5842 c-3 -5 1 -9 9 -9 8 0 12 4 9 9 -3 4 -7 8 -9 8 -2 0 -6 -4
-9 -8z"/>
<path d="M3196 5807 c3 -10 9 -15 12 -12 3 3 0 11 -7 18 -10 9 -11 8 -5 -6z"/>
<path d="M8836 5798 c3 -5 10 -6 15 -3 13 9 11 12 -6 12 -8 0 -12 -4 -9 -9z"/>
<path d="M8773 5751 c0 -11 5 -18 9 -15 4 3 5 11 1 19 -7 21 -12 19 -10 -4z"/>
<path d="M8774 5696 c1 -8 5 -18 8 -22 4 -3 5 1 4 10 -1 8 -5 18 -8 22 -4 3
-5 -1 -4 -10z"/>
<path d="M3195 5640 c-3 -5 -1 -10 4 -10 6 0 11 5 11 10 0 6 -2 10 -4 10 -3 0
-8 -4 -11 -10z"/>
<path d="M3214 5556 c1 -8 5 -18 8 -22 4 -3 5 1 4 10 -1 8 -5 18 -8 22 -4 3
-5 -1 -4 -10z"/>
<path d="M8779 5528 c-5 -18 -6 -38 -1 -34 7 8 12 36 6 36 -2 0 -4 -1 -5 -2z"/>
<path d="M8836 5518 c3 -5 10 -6 15 -3 13 9 11 12 -6 12 -8 0 -12 -4 -9 -9z"/>
<path d="M3219 5448 c-5 -18 -6 -38 -1 -34 7 8 12 36 6 36 -2 0 -4 -1 -5 -2z"/>
<path d="M3156 5367 c3 -10 9 -15 12 -12 3 3 0 11 -7 18 -10 9 -11 8 -5 -6z"/>
<path d="M3219 5328 c-5 -18 -6 -38 -1 -34 7 8 12 36 6 36 -2 0 -4 -1 -5 -2z"/>
<path d="M3219 5208 c-5 -18 -6 -38 -1 -34 7 8 12 36 6 36 -2 0 -4 -1 -5 -2z"/>
<path d="M8793 5195 c0 -8 4 -12 9 -9 5 3 6 10 3 15 -9 13 -12 11 -12 -6z"/>
<path d="M8866 5198 c3 -5 10 -6 15 -3 13 9 11 12 -6 12 -8 0 -12 -4 -9 -9z"/>
<path d="M8776 5138 c3 -5 10 -6 15 -3 13 9 11 12 -6 12 -8 0 -12 -4 -9 -9z"/>
<path d="M3219 5088 c-5 -18 -6 -38 -1 -34 7 8 12 36 6 36 -2 0 -4 -1 -5 -2z"/>
<path d="M3156 5033 c-6 -14 -5 -15 5 -6 7 7 10 15 7 18 -3 3 -9 -2 -12 -12z"/>
<path d="M8776 4978 c3 -4 11 -5 19 -1 21 7 19 12 -4 10 -11 0 -18 -5 -15 -9z"/>
<path d="M3206 4938 c3 -5 10 -6 15 -3 13 9 11 12 -6 12 -8 0 -12 -4 -9 -9z"/>
<path d="M3166 4918 c3 -5 10 -6 15 -3 13 9 11 12 -6 12 -8 0 -12 -4 -9 -9z"/>
<path d="M3066 4838 c3 -5 10 -6 15 -3 13 9 11 12 -6 12 -8 0 -12 -4 -9 -9z"/>
<path d="M3214 4796 c1 -8 5 -18 8 -22 4 -3 5 1 4 10 -1 8 -5 18 -8 22 -4 3
-5 -1 -4 -10z"/>
<path d="M3190 4724 c0 -20 27 -37 36 -23 4 7 3 9 -4 5 -6 -3 -15 2 -21 11 -6
10 -11 13 -11 7z"/>
<path d="M8750 4541 c0 -6 4 -13 10 -16 6 -3 7 1 4 9 -7 18 -14 21 -14 7z"/>
<path d="M8595 4160 c-3 -5 -1 -10 4 -10 6 0 11 5 11 10 0 6 -2 10 -4 10 -3 0
-8 -4 -11 -10z"/>
<path d="M8350 4065 c0 -5 5 -17 10 -25 5 -8 10 -10 10 -5 0 6 -5 17 -10 25
-5 8 -10 11 -10 5z"/>
<path d="M3710 4025 c0 -7 30 -13 34 -7 3 4 -4 9 -15 9 -10 1 -19 0 -19 -2z"/>
<path d="M8220 4020 c-8 -5 -10 -10 -5 -10 6 0 17 5 25 10 8 5 11 10 5 10 -5
0 -17 -5 -25 -10z"/>
<path d="M3806 3962 c-3 -5 1 -9 9 -9 8 0 12 4 9 9 -3 4 -7 8 -9 8 -2 0 -6 -4
-9 -8z"/>
<path d="M8095 3940 c3 -5 8 -10 11 -10 2 0 4 5 4 10 0 6 -5 10 -11 10 -5 0
-7 -4 -4 -10z"/>
<path d="M3590 3919 c0 -5 5 -7 10 -4 6 3 10 8 10 11 0 2 -4 4 -10 4 -5 0 -10
-5 -10 -11z"/>
<path d="M3975 3900 c3 -5 8 -10 11 -10 2 0 4 5 4 10 0 6 -5 10 -11 10 -5 0
-7 -4 -4 -10z"/>
<path d="M4016 3862 c-2 -4 -1 -14 4 -22 7 -11 9 -9 7 8 -1 24 -3 26 -11 14z"/>
<path d="M7973 3849 c-2 -23 3 -25 10 -4 4 8 3 16 -1 19 -4 3 -9 -4 -9 -15z"/>
<path d="M4067 3799 c7 -7 15 -10 18 -7 3 3 -2 9 -12 12 -14 6 -15 5 -6 -5z"/>
<path d="M7875 3789 c-4 -6 -5 -12 -2 -15 2 -3 7 2 10 11 7 17 1 20 -8 4z"/>
<path d="M4159 3788 c-5 -18 -6 -38 -1 -34 7 8 12 36 6 36 -2 0 -4 -1 -5 -2z"/>
<path d="M4194 3742 c4 -3 14 -7 22 -8 9 -1 13 0 10 4 -4 3 -14 7 -22 8 -9 1
-13 0 -10 -4z"/>
<path d="M7606 3662 c-3 -5 1 -9 9 -9 8 0 12 4 9 9 -3 4 -7 8 -9 8 -2 0 -6 -4
-9 -8z"/>
<path d="M7410 3545 c0 -7 30 -13 34 -7 3 4 -4 9 -15 9 -10 1 -19 0 -19 -2z"/>
<path d="M4420 3526 c0 -2 8 -10 18 -17 15 -13 16 -12 3 4 -13 16 -21 21 -21
13z"/>
<path d="M4740 3440 c-9 -6 -10 -10 -3 -10 6 0 15 5 18 10 8 12 4 12 -15 0z"/>
<path d="M7195 3390 c-4 -6 -11 -7 -17 -4 -7 4 -8 2 -4 -5 6 -9 11 -9 22 0 14
11 18 19 10 19 -3 0 -8 -5 -11 -10z"/>
<path d="M4874 3336 c1 -8 5 -18 8 -22 4 -3 5 1 4 10 -1 8 -5 18 -8 22 -4 3
-5 -1 -4 -10z"/>
<path d="M4974 3302 c4 -3 14 -7 22 -8 9 -1 13 0 10 4 -4 3 -14 7 -22 8 -9 1
-13 0 -10 -4z"/>
<path d="M5150 3166 c0 -2 7 -7 16 -10 8 -3 12 -2 9 4 -6 10 -25 14 -25 6z"/>
<path d="M5195 3160 c-3 -5 -1 -10 4 -10 6 0 11 5 11 10 0 6 -2 10 -4 10 -3 0
-8 -4 -11 -10z"/>
<path d="M5230 3145 c0 -7 30 -13 34 -7 3 4 -4 9 -15 9 -10 1 -19 0 -19 -2z"/>
<path d="M6710 3119 c0 -5 5 -7 10 -4 6 3 10 8 10 11 0 2 -4 4 -10 4 -5 0 -10
-5 -10 -11z"/>
<path d="M5310 3100 c0 -5 5 -10 11 -10 5 0 7 5 4 10 -3 6 -8 10 -11 10 -2 0
-4 -4 -4 -10z"/>
<path d="M6650 3100 c0 -5 5 -10 11 -10 5 0 7 5 4 10 -3 6 -8 10 -11 10 -2 0
-4 -4 -4 -10z"/>
<path d="M5366 3062 c-3 -5 1 -9 9 -9 8 0 12 4 9 9 -3 4 -7 8 -9 8 -2 0 -6 -4
-9 -8z"/>
<path d="M6613 3055 c0 -8 4 -12 9 -9 5 3 6 10 3 15 -9 13 -12 11 -12 -6z"/>
<path d="M6453 2975 c0 -8 4 -12 9 -9 5 3 6 10 3 15 -9 13 -12 11 -12 -6z"/>
<path d="M5556 2922 c-3 -5 1 -9 9 -9 8 0 12 4 9 9 -3 4 -7 8 -9 8 -2 0 -6 -4
-9 -8z"/>
<path d="M5795 2760 c3 -5 8 -10 11 -10 2 0 4 5 4 10 0 6 -5 10 -11 10 -5 0
-7 -4 -4 -10z"/>
</g>
</svg>
